<?xml version="1.0" encoding="UTF-8"?><svg id="a" xmlns="http://www.w3.org/2000/svg" viewBox="0 0 259.43 260.18"><defs><style>.b{fill:#e57661;}.c{fill:#c0d9df;}.d{fill:#f2c054;}.e{fill:#e06f64;}.f{fill:#d2dee4;}.g{fill:#e49956;}.h{fill:#d37f4d;}.i{fill:#f0c155;}</style></defs><path class="i" d="M258.83,119.55c.47,4.64,1.09,10.45,0,14.92-8.39-9.57-20.52-18.17-28.51-27.81-2.16-2.61-4.47-12.92-6.16-16.95C196.24,23.05,105.15,3.88,54.84,56.72l-18.72-18.26c1.77-1.84,3.52-3.81,5.4-5.53l1.65-.85s.02,0,.02-.01C123.03-38.36,248.13,14.56,258.83,119.55Z"/><path class="g" d="M36.12,38.46l18.72,18.26c-42.98,45.14-35.75,113.8,9.9,154.14l4.19,33.15C-6.22,202.08-24.1,101.07,36.12,38.46Z"/><path class="c" d="M125.99,91.79c.46-.52,1.38-.03,1.2.65-6.47,31.83,11.43,48.2,35.56,70.64.23.21.31.54.18.82-.84,1.9,3.3,3.78,1.38,6.06-1.28,1.52-2.66.31-3.33.5-.56.15-4.83,3.52-5.44,4.22-.87.99-1.54,3.44-2.06,3.76-.69.42-2.19-.69-3.2-.02-.26.18-.61.14-.85-.07-12.36-11.1-26.27-19.96-43.67-17.65-10.05,1.33-13.4,4.77-20.88,10.6-13.93,10.86-33.8-7.43-23.18-22.11"/><path class="f" d="M218.5,217.99c4.51,5.29-.91,9.4-4.92,13.13-13.34,12.36-28.46,18.69-45.31,23.43l-21.7-21.17c8.39-1.36,30.16-8.69,36.62-13.91,2.71-2.19,2.81-4.12.76-6.94-12.01-11.06-23.03-23.29-35.12-34.24.96-1.35,2.78.14,3.56-.34.52-.32,1.19-2.76,2.06-3.76.61-.7,4.87-4.07,5.44-4.22.66-.19,2.05,1.01,3.33-.5,2.06-2.45-2.84-4.42-1.12-6.47,16.92,18.94,40.13,35.92,56.41,55Z"/><path class="e" d="M258.82,134.48c1.03,1.38.43,6.14.29,8.19-1.5,22.66-10.78,50.52-25.63,67.99-3.21,3.77-6.58,8.69-11.48,5.82-.23-.14-.59-.1-.84.01-2.89-2.11-6.6-6.45-9.36-9.13,2.46-3.82,2.79-.42,4.41-.64,3.89-.55-2.28-10.81-2.86-12.61-.3-.92-1.33-6.23-1.02-6.67.77-1.1,3.45-1.24,2.12-4.07,3.49,1.72,5.46-1.64,6.88-4.08,8.39-14.5,12.27-38.61,11.11-55.2-.41-5.84-2.11-11.62-2.12-17.42,7.98,9.64,20.11,18.24,28.51,27.81Z"/><path class="d" d="M146.56,233.38l21.7,21.17c-34.59,9.73-67.45,7.24-99.33-10.54l-4.19-33.15c20.58,18.19,54.94,26.88,81.82,22.52Z"/><path class="b" d="M214.45,183.36c1.33,2.83-1.35,2.96-2.12,4.07-.31.44.72,5.75,1.02,6.67.59,1.8,6.76,12.06,2.86,12.61-1.62.23-1.95-3.17-4.41.64-13.77-13.39-27.64-26.74-41.27-40.26l13.28-13.62c6.31,6.28,12.73,12.51,19.15,18.68,1.89,3.31,5.49,6.26,8.3,8.94.73.7,1.63,2.12,2.76,1.84.17.12.28.34.43.42Z"/><path class="g" d="M43.17,32.07l-1.65.85c.88-.81,1.51-.8,1.65-.85Z"/><path class="h" d="M222.01,216.48c-.24.16-.61.18-.84.01.25-.11.61-.15.84-.01Z"/><path class="h" d="M214.03,182.95c-1.13.27-2.03-1.15-2.76-1.84-2.81-2.68-6.42-5.63-8.3-8.94,3.26,3.14,7.66,8.33,11.06,10.79Z"/><path class="c" d="M127.87,89.55c-.93,23.48,5.64,34.13,5.75,34.83,1.24,7.93,41.05,47.74,38.18,44.8-.24-.24.55.4.84.31,1.99-.6,3.76,3.97,6.18,2.3,1.6-1.11.42-2.72.63-3.39.18-.56,3.79-4.51,4.53-5.04,1.05-.76,3.59-1.11,3.93-1.6.46-.65-.63-2.38.09-3.32.19-.25.16-.62-.04-.89-10.96-14.43-19.57-30.14-16.58-47.89,1.73-10.25,5.38-13.24,11.63-20.19,11.65-12.93-6.43-36.18-21.89-27.25"/></svg>